<svg width="21" height="15" viewBox="0 0 21 15" fill="none" xmlns="http://www.w3.org/2000/svg">
<g clip-path="url(#clip0_9_1049)">
<path d="M3.38461 0.208344C1.51458 0.208344 0 1.72436 0 3.59376V11.4063C0 13.2759 1.5157 14.7917 3.38542 14.7917H17.4479C19.3176 14.7917 20.8333 13.2759 20.8333 11.4063V3.59376C20.8333 1.72436 19.3188 0.208344 17.4487 0.208344H3.38461ZM4.45855 5.64532L5.20851 6.39501L5.95799 5.64553C6.26308 5.34041 6.75774 5.34041 7.06284 5.64553C7.36794 5.95063 7.36794 6.44522 7.06284 6.75032L6.31363 7.49959L7.06271 8.24834C7.36789 8.55334 7.368 9.04803 7.06298 9.35314C6.75795 9.65834 6.26329 9.65845 5.95812 9.35345L5.20877 8.60438L4.45868 9.35449C4.15358 9.65959 3.65892 9.65959 3.35382 9.35449C3.04873 9.04939 3.04873 8.5548 3.35382 8.2497L4.10366 7.4998L3.35395 6.75053C3.04878 6.44543 3.04867 5.95084 3.35369 5.64564C3.65872 5.34046 4.15338 5.34034 4.45855 5.64532ZM10.1877 5.64532L10.9377 6.39501L11.6872 5.64553C11.9923 5.34041 12.4869 5.34041 12.792 5.64553C13.0971 5.95063 13.0971 6.44522 12.792 6.75032L12.0428 7.49959L12.7919 8.24834C13.0971 8.55334 13.0972 9.04803 12.7922 9.35314C12.4871 9.65834 11.9925 9.65845 11.6873 9.35345L10.9379 8.60438L10.1878 9.35449C9.88271 9.65959 9.38813 9.65959 9.08302 9.35449C8.77792 9.04939 8.77792 8.5548 9.08302 8.2497L9.83281 7.4998L9.08313 6.75053C8.77792 6.44543 8.77781 5.95084 9.08281 5.64564C9.38792 5.34046 9.8825 5.34034 10.1877 5.64532ZM14.3229 9.84376C14.3229 9.4123 14.6727 9.06251 15.1042 9.06251H16.9271C17.3585 9.06251 17.7083 9.4123 17.7083 9.84376C17.7083 10.2752 17.3585 10.625 16.9271 10.625H15.1042C14.6727 10.625 14.3229 10.2752 14.3229 9.84376Z" fill="#6A6565"/>
</g>
<defs>
<clipPath id="clip0_9_1049">
<rect width="20.8333" height="15" fill="white"/>
</clipPath>
</defs>
</svg>
