<svg width="20" height="20" viewBox="0 0 20 20" fill="none" xmlns="http://www.w3.org/2000/svg">
<path d="M2.55977 17.6694C2.03501 17.6694 1.58784 17.4846 1.21827 17.115C0.848718 16.7455 0.66394 16.2983 0.66394 15.7735V5.89311C0.66394 5.36835 0.848732 4.92118 1.21832 4.55161C1.58787 4.18204 2.03503 3.99726 2.55979 3.99726H5.03534L6.08696 2.90713C6.25967 2.72719 6.46529 2.58611 6.70382 2.4839C6.94234 2.38169 7.18962 2.33059 7.44565 2.33059H10.7536C11.0196 2.33059 11.2441 2.42208 11.4271 2.60505C11.6101 2.78802 11.7015 3.01251 11.7015 3.27853C11.7015 3.54453 11.6101 3.76901 11.4271 3.95198C11.2441 4.13496 11.0196 4.22644 10.7536 4.22644H7.45061L5.84509 5.89311H2.55977V15.7735H15.7735V9.24138C15.7735 8.97538 15.865 8.75089 16.048 8.56792C16.231 8.38495 16.4554 8.29346 16.7214 8.29346C16.9875 8.29346 17.2119 8.38495 17.3949 8.56792C17.5779 8.75089 17.6694 8.97538 17.6694 9.24138V15.7735C17.6694 16.2983 17.4846 16.7455 17.115 17.115C16.7455 17.4846 16.2983 17.6694 15.7735 17.6694H2.55977ZM15.923 4.07198H15.0697C14.8237 4.07198 14.6175 3.9883 14.4511 3.82094C14.2847 3.65358 14.2015 3.4462 14.2015 3.1988C14.2015 2.95281 14.2852 2.74662 14.4526 2.58021C14.6199 2.4138 14.8273 2.33059 15.0747 2.33059H15.923V1.48232C15.923 1.23491 16.0067 1.02753 16.174 0.860172C16.3414 0.692811 16.5488 0.609131 16.7962 0.609131C17.0436 0.609131 17.251 0.692811 17.4183 0.860172C17.5857 1.02753 17.6694 1.23491 17.6694 1.48232V2.33059H18.5177C18.7636 2.33059 18.9698 2.4138 19.1363 2.58023C19.3027 2.74665 19.3859 2.95287 19.3859 3.1989C19.3859 3.44491 19.3027 3.65194 19.1363 3.81996C18.9698 3.98798 18.7636 4.07198 18.5177 4.07198H17.6694V4.92028C17.6694 5.16768 17.5857 5.37506 17.4183 5.54242C17.251 5.70978 17.0436 5.79346 16.7962 5.79346C16.5488 5.79346 16.3414 5.70978 16.174 5.54242C16.0067 5.37506 15.923 5.16768 15.923 4.92028V4.07198ZM9.16548 14.6232C10.2179 14.6232 11.1128 14.2548 11.8503 13.5182C12.5878 12.7815 12.9565 11.8869 12.9565 10.8345C12.9565 9.78208 12.5882 8.88715 11.8515 8.14967C11.1148 7.4122 10.2202 7.04346 9.16782 7.04346C8.11541 7.04346 7.22048 7.4118 6.483 8.14848C5.74553 8.88518 5.37679 9.77973 5.37679 10.8322C5.37679 11.8846 5.74513 12.7795 6.48182 13.517C7.21851 14.2544 8.11307 14.6232 9.16548 14.6232ZM9.16665 12.827C8.60657 12.827 8.13427 12.6347 7.74975 12.2502C7.36524 11.8657 7.17298 11.3934 7.17298 10.8333C7.17298 10.2732 7.36524 9.80094 7.74975 9.41642C8.13427 9.03191 8.60657 8.83965 9.16665 8.83965C9.72673 8.83965 10.199 9.03191 10.5835 9.41642C10.9681 9.80094 11.1603 10.2732 11.1603 10.8333C11.1603 11.3934 10.9681 11.8657 10.5835 12.2502C10.199 12.6347 9.72673 12.827 9.16665 12.827Z" fill="white"/>
</svg>
