<svg width="20" height="20" viewBox="0 0 20 20" fill="none" xmlns="http://www.w3.org/2000/svg">
<g clip-path="url(#clip0_440_1971)">
<path d="M2.22222 8.88889C1.61111 8.88889 1.08796 8.6713 0.652778 8.23611C0.217593 7.80093 0 7.27778 0 6.66667V2.22222C0 1.61111 0.217593 1.08796 0.652778 0.652778C1.08796 0.217593 1.61111 0 2.22222 0H17.7778C18.3889 0 18.912 0.217593 19.3472 0.652778C19.7824 1.08796 20 1.61111 20 2.22222V6.66667C20 7.27778 19.7824 7.80093 19.3472 8.23611C18.912 8.6713 18.3889 8.88889 17.7778 8.88889H2.22222ZM2.22222 6.66667H17.7778V2.22222H2.22222V6.66667ZM2.22222 20C1.61111 20 1.08796 19.7824 0.652778 19.3472C0.217593 18.912 0 18.3889 0 17.7778V13.3333C0 12.7222 0.217593 12.1991 0.652778 11.7639C1.08796 11.3287 1.61111 11.1111 2.22222 11.1111H17.7778C18.3889 11.1111 18.912 11.3287 19.3472 11.7639C19.7824 12.1991 20 12.7222 20 13.3333V17.7778C20 18.3889 19.7824 18.912 19.3472 19.3472C18.912 19.7824 18.3889 20 17.7778 20H2.22222ZM2.22222 17.7778H17.7778V13.3333H2.22222V17.7778Z" fill="white"/>
</g>
<defs>
<clipPath id="clip0_440_1971">
<rect width="20" height="20" fill="white"/>
</clipPath>
</defs>
</svg>
