<svg width="20" height="20" viewBox="0 0 20 20" fill="none" xmlns="http://www.w3.org/2000/svg">
<g clip-path="url(#clip0_440_1979)">
<path d="M10 14.4688C9.83333 14.4688 9.67708 14.4427 9.53125 14.3906C9.38542 14.3385 9.25 14.25 9.125 14.125L4.625 9.625C4.375 9.375 4.25521 9.08333 4.26562 8.75C4.27604 8.41667 4.39583 8.125 4.625 7.875C4.875 7.625 5.17188 7.49479 5.51562 7.48438C5.85938 7.47396 6.15625 7.59375 6.40625 7.84375L8.75 10.1875V1.25C8.75 0.895833 8.86979 0.598958 9.10938 0.359375C9.34896 0.119792 9.64583 0 10 0C10.3542 0 10.651 0.119792 10.8906 0.359375C11.1302 0.598958 11.25 0.895833 11.25 1.25V10.1875L13.5938 7.84375C13.8438 7.59375 14.1406 7.47396 14.4844 7.48438C14.8281 7.49479 15.125 7.625 15.375 7.875C15.6042 8.125 15.724 8.41667 15.7344 8.75C15.7448 9.08333 15.625 9.375 15.375 9.625L10.875 14.125C10.75 14.25 10.6146 14.3385 10.4688 14.3906C10.3229 14.4427 10.1667 14.4688 10 14.4688ZM2.5 20C1.8125 20 1.22396 19.7552 0.734375 19.2656C0.244792 18.776 0 18.1875 0 17.5V15C0 14.6458 0.119792 14.349 0.359375 14.1094C0.598958 13.8698 0.895833 13.75 1.25 13.75C1.60417 13.75 1.90104 13.8698 2.14062 14.1094C2.38021 14.349 2.5 14.6458 2.5 15V17.5H17.5V15C17.5 14.6458 17.6198 14.349 17.8594 14.1094C18.099 13.8698 18.3958 13.75 18.75 13.75C19.1042 13.75 19.401 13.8698 19.6406 14.1094C19.8802 14.349 20 14.6458 20 15V17.5C20 18.1875 19.7552 18.776 19.2656 19.2656C18.776 19.7552 18.1875 20 17.5 20H2.5Z" fill="white"/>
</g>
<defs>
<clipPath id="clip0_440_1979">
<rect width="20" height="20" fill="white"/>
</clipPath>
</defs>
</svg>
