<svg width="20" height="20" viewBox="0 0 20 20" fill="none" xmlns="http://www.w3.org/2000/svg">
<g clip-path="url(#clip0_442_3252)">
<path d="M3.06578 16.9283H4.49678L13.8652 7.55983L12.4462 6.13483L3.06578 15.5153V16.9283ZM1.93428 19.2033C1.61506 19.2033 1.34567 19.0935 1.1261 18.874C0.906536 18.6544 0.796753 18.385 0.796753 18.0658V15.5093C0.796753 15.2067 0.853728 14.9177 0.967678 14.6422C1.08163 14.3666 1.24422 14.1232 1.45545 13.912L13.9848 1.40165C14.1928 1.20637 14.4236 1.05674 14.6772 0.952753C14.9308 0.848753 15.1969 0.796753 15.4756 0.796753C15.7502 0.796753 16.0185 0.848753 16.2805 0.952753C16.5424 1.05674 16.773 1.21271 16.9723 1.42068L18.6044 3.0598C18.8123 3.2551 18.9652 3.48473 19.0628 3.74868C19.1605 4.01263 19.2093 4.27757 19.2093 4.5435C19.2093 4.82214 19.1605 5.08926 19.0628 5.34488C18.9652 5.60049 18.8123 5.83229 18.6044 6.04025L6.10003 18.5446C5.88879 18.7558 5.64541 18.9184 5.36988 19.0324C5.09433 19.1463 4.80529 19.2033 4.50275 19.2033H1.93428ZM13.1462 6.85383L12.4462 6.13483L13.8652 7.55983L13.1462 6.85383Z" fill="white"/>
</g>
<defs>
<clipPath id="clip0_442_3252">
<rect width="20" height="20" fill="white"/>
</clipPath>
</defs>
</svg>
