<svg width="20" height="20" viewBox="0 0 20 20" fill="none" xmlns="http://www.w3.org/2000/svg">
<g clip-path="url(#clip0_442_3229)">
<path d="M2.79245 19.2757C2.21998 19.2757 1.73216 19.0741 1.32899 18.671C0.925826 18.2678 0.724243 17.78 0.724243 17.2075V4.61069C0.724243 4.03822 0.925826 3.5504 1.32899 3.14724C1.73216 2.74407 2.21998 2.54249 2.79245 2.54249H3.63631V1.69319C3.63631 1.42111 3.73068 1.19161 3.91943 1.00469C4.10815 0.817766 4.33855 0.724304 4.61063 0.724304C4.88269 0.724304 5.11218 0.817766 5.29911 1.00469C5.48603 1.19161 5.57949 1.42111 5.57949 1.69319V2.54249H12.6022V1.69319C12.6022 1.42111 12.6966 1.19161 12.8853 1.00469C13.0741 0.817766 13.3045 0.724304 13.5765 0.724304C13.8486 0.724304 14.0781 0.817766 14.265 1.00469C14.4519 1.19161 14.5454 1.42111 14.5454 1.69319V2.54249H15.3893C15.9617 2.54249 16.4496 2.74407 16.8527 3.14724C17.2559 3.5504 17.4575 4.03822 17.4575 4.61069V8.20455C17.4575 8.49474 17.3577 8.73963 17.1581 8.93924C16.9585 9.13884 16.7136 9.23864 16.4234 9.23864C16.1332 9.23864 15.8883 9.13884 15.6887 8.93924C15.4891 8.73963 15.3893 8.49564 15.3893 8.20728V8.18183H2.79245V17.2075H8.02415C8.31433 17.2075 8.55923 17.3073 8.75883 17.5069C8.95844 17.7065 9.05824 17.9514 9.05824 18.2416C9.05824 18.5318 8.95844 18.7767 8.75883 18.9763C8.55923 19.1759 8.31433 19.2757 8.02415 19.2757H2.79245ZM2.79245 6.36365H15.3893V4.61069H2.79245V6.36365ZM10.8764 18.2416V16.7634C10.8764 16.624 10.9028 16.4912 10.9555 16.3649C11.0082 16.2386 11.0854 16.1245 11.1872 16.0227L15.9318 11.2955C16.079 11.1476 16.2426 11.0408 16.4225 10.9751C16.6025 10.9093 16.7824 10.8765 16.9624 10.8765C17.1587 10.8765 17.3466 10.9133 17.5262 10.9869C17.7057 11.0605 17.8689 11.171 18.0158 11.3182L18.8567 12.1591C18.9881 12.3063 19.0908 12.4699 19.1647 12.6499C19.2387 12.8298 19.2757 13.0098 19.2757 13.1897C19.2757 13.3745 19.2426 13.5595 19.1766 13.7446C19.1105 13.9297 19.0039 14.0959 18.8567 14.2431L14.1294 18.9704C14.0281 19.0721 13.9142 19.1485 13.7877 19.1994C13.6611 19.2503 13.5281 19.2757 13.3888 19.2757H11.9105C11.6203 19.2757 11.3754 19.1759 11.1758 18.9763C10.9762 18.7767 10.8764 18.5318 10.8764 18.2416ZM12.3488 17.8034H13.2124L15.9407 15.0524L15.5316 14.6206L15.0997 14.2115L12.3488 16.9397V17.8034ZM15.5316 14.6206L15.0997 14.2115L15.9407 15.0524L15.5316 14.6206Z" fill="white"/>
</g>
<defs>
<clipPath id="clip0_442_3229">
<rect width="20" height="20" fill="white"/>
</clipPath>
</defs>
</svg>
