<svg width="10" height="7" viewBox="0 0 10 7" fill="none" xmlns="http://www.w3.org/2000/svg">
<g clip-path="url(#clip0_442_3239)">
<path d="M4.99996 6.37502C4.88885 6.37502 4.78468 6.35766 4.68746 6.32294C4.59024 6.28822 4.49996 6.22919 4.41663 6.14585L0.583293 2.31252C0.430515 2.15974 0.354126 1.9653 0.354126 1.72919C0.354126 1.49308 0.430515 1.29863 0.583293 1.14585C0.73607 0.993076 0.930515 0.916687 1.16663 0.916687C1.40274 0.916687 1.59718 0.993076 1.74996 1.14585L4.99996 4.39585L8.24996 1.14585C8.40274 0.993076 8.59718 0.916687 8.83329 0.916687C9.0694 0.916687 9.26385 0.993076 9.41663 1.14585C9.5694 1.29863 9.64579 1.49308 9.64579 1.72919C9.64579 1.9653 9.5694 2.15974 9.41663 2.31252L5.58329 6.14585C5.49996 6.22919 5.40968 6.28822 5.31246 6.32294C5.21524 6.35766 5.11107 6.37502 4.99996 6.37502Z" fill="white"/>
</g>
<defs>
<clipPath id="clip0_442_3239">
<rect width="10" height="6.66667" fill="white" transform="translate(0 0.166687)"/>
</clipPath>
</defs>
</svg>
