<svg width="20" height="20" viewBox="0 0 20 20" fill="none" xmlns="http://www.w3.org/2000/svg">
<g clip-path="url(#clip0_442_2848)">
<path d="M10.0479 19.1853C9.74062 19.1853 9.48121 19.0809 9.26962 18.8721C9.05802 18.6632 8.95222 18.4044 8.95222 18.0957V14.0897C8.95222 13.781 9.05802 13.5222 9.26962 13.3133C9.48121 13.1044 9.74062 13 10.0479 13C10.3551 13 10.6135 13.1044 10.8231 13.3133C11.0327 13.5222 11.1375 13.781 11.1375 14.0897V15H18.0479C18.3566 15 18.6154 15.1044 18.8243 15.3133C19.0331 15.5222 19.1375 15.781 19.1375 16.0897C19.1375 16.3969 19.0331 16.6564 18.8243 16.868C18.6154 17.0796 18.3566 17.1853 18.0479 17.1853H11.1375V18.0957C11.1375 18.4044 11.0331 18.6632 10.8243 18.8721C10.6154 19.0809 10.3566 19.1853 10.0479 19.1853ZM1.95222 17.1853C1.64347 17.1853 1.38467 17.0796 1.17582 16.868C0.966974 16.6564 0.862549 16.3969 0.862549 16.0897C0.862549 15.7824 0.966974 15.524 1.17582 15.3144C1.38467 15.1048 1.64347 15 1.95222 15H5.9582C6.26695 15 6.52575 15.1044 6.7346 15.3133C6.94345 15.5222 7.04787 15.781 7.04787 16.0897C7.04787 16.3969 6.94345 16.6564 6.7346 16.868C6.52575 17.0796 6.26695 17.1853 5.9582 17.1853H1.95222ZM5.9582 13.0897C5.65095 13.0897 5.39153 12.9839 5.17995 12.7723C4.96835 12.5607 4.86255 12.3013 4.86255 11.994V11.0897H1.95222C1.64347 11.0897 1.38467 10.9853 1.17582 10.7764C0.966974 10.5676 0.862549 10.3088 0.862549 10C0.862549 9.69129 0.966974 9.43249 1.17582 9.22362C1.38467 9.01477 1.64347 8.91035 1.95222 8.91035H4.86255V8.00002C4.86255 7.69129 4.96835 7.43249 5.17995 7.22362C5.39153 7.01477 5.65095 6.91035 5.9582 6.91035C6.26545 6.91035 6.52387 7.01477 6.73347 7.22362C6.94307 7.43249 7.04787 7.69129 7.04787 8.00002V12C7.04787 12.3088 6.94345 12.5676 6.7346 12.7764C6.52575 12.9853 6.26695 13.0897 5.9582 13.0897ZM10.0419 11.0897C9.73315 11.0897 9.47435 10.9853 9.2655 10.7764C9.05665 10.5676 8.95222 10.3088 8.95222 10C8.95222 9.69129 9.05665 9.43249 9.2655 9.22362C9.47435 9.01477 9.73315 8.91035 10.0419 8.91035H18.0479C18.3566 8.91035 18.6154 9.01477 18.8243 9.22362C19.0331 9.43249 19.1375 9.69129 19.1375 10C19.1375 10.3088 19.0331 10.5676 18.8243 10.7764C18.6154 10.9853 18.3566 11.0897 18.0479 11.0897H10.0419ZM14.0479 7.00002C13.7406 7.00002 13.4812 6.8956 13.2696 6.68675C13.058 6.47788 12.9522 6.21908 12.9522 5.91035V1.90437C12.9522 1.59562 13.058 1.33682 13.2696 1.12797C13.4812 0.919122 13.7406 0.814697 14.0479 0.814697C14.3551 0.814697 14.6135 0.919122 14.8231 1.12797C15.0327 1.33682 15.1375 1.59562 15.1375 1.90437V2.8147H18.0479C18.3566 2.8147 18.6154 2.91912 18.8243 3.12797C19.0331 3.33682 19.1375 3.59562 19.1375 3.90437C19.1375 4.21162 19.0331 4.47104 18.8243 4.68262C18.6154 4.89422 18.3566 5.00002 18.0479 5.00002H15.1375V5.91035C15.1375 6.21908 15.0331 6.47788 14.8243 6.68675C14.6154 6.8956 14.3566 7.00002 14.0479 7.00002ZM1.95222 5.00002C1.64347 5.00002 1.38467 4.89422 1.17582 4.68262C0.966974 4.47104 0.862549 4.21162 0.862549 3.90437C0.862549 3.59712 0.966974 3.3387 1.17582 3.1291C1.38467 2.9195 1.64347 2.8147 1.95222 2.8147H9.9582C10.2669 2.8147 10.5257 2.91912 10.7346 3.12797C10.9434 3.33682 11.0479 3.59562 11.0479 3.90437C11.0479 4.21162 10.9434 4.47104 10.7346 4.68262C10.5257 4.89422 10.2669 5.00002 9.9582 5.00002H1.95222Z" fill="white"/>
</g>
<defs>
<clipPath id="clip0_442_2848">
<rect width="20" height="20" fill="white"/>
</clipPath>
</defs>
</svg>
