<svg width="20" height="20" viewBox="0 0 20 20" fill="none" xmlns="http://www.w3.org/2000/svg">
<g clip-path="url(#clip0_440_2166)">
<path d="M3.07178 9.00003C2.44614 9.00003 1.91057 8.77727 1.46505 8.33175C1.01952 7.88622 0.796753 7.35064 0.796753 6.72503V3.07178C0.796753 2.44614 1.01952 1.91057 1.46505 1.46505C1.91057 1.01952 2.44614 0.796753 3.07178 0.796753H6.72503C7.35064 0.796753 7.88622 1.01952 8.33175 1.46505C8.77727 1.91057 9.00003 2.44614 9.00003 3.07178V6.72503C9.00003 7.35064 8.77727 7.88622 8.33175 8.33175C7.88622 8.77727 7.35064 9.00003 6.72503 9.00003H3.07178ZM3.07178 19.2033C2.44614 19.2033 1.91057 18.9805 1.46505 18.535C1.01952 18.0895 0.796753 17.5539 0.796753 16.9283V13.275C0.796753 12.6494 1.01952 12.1138 1.46505 11.6683C1.91057 11.2228 2.44614 11 3.07178 11H6.72503C7.35064 11 7.88622 11.2228 8.33175 11.6683C8.77727 12.1138 9.00003 12.6494 9.00003 13.275V16.9283C9.00003 17.5539 8.77727 18.0895 8.33175 18.535C7.88622 18.9805 7.35064 19.2033 6.72503 19.2033H3.07178ZM13.275 9.00003C12.6494 9.00003 12.1138 8.77727 11.6683 8.33175C11.2228 7.88622 11 7.35064 11 6.72503V3.07178C11 2.44614 11.2228 1.91057 11.6683 1.46505C12.1138 1.01952 12.6494 0.796753 13.275 0.796753H16.9283C17.5539 0.796753 18.0895 1.01952 18.535 1.46505C18.9805 1.91057 19.2033 2.44614 19.2033 3.07178V6.72503C19.2033 7.35064 18.9805 7.88622 18.535 8.33175C18.0895 8.77727 17.5539 9.00003 16.9283 9.00003H13.275ZM13.275 19.2033C12.6494 19.2033 12.1138 18.9805 11.6683 18.535C11.2228 18.0895 11 17.5539 11 16.9283V13.275C11 12.6494 11.2228 12.1138 11.6683 11.6683C12.1138 11.2228 12.6494 11 13.275 11H16.9283C17.5539 11 18.0895 11.2228 18.535 11.6683C18.9805 12.1138 19.2033 12.6494 19.2033 13.275V16.9283C19.2033 17.5539 18.9805 18.0895 18.535 18.535C18.0895 18.9805 17.5539 19.2033 16.9283 19.2033H13.275ZM3.07178 6.72503H6.72503V3.07178H3.07178V6.72503ZM13.275 6.72503H16.9283V3.07178H13.275V6.72503ZM13.275 16.9283H16.9283V13.275H13.275V16.9283ZM3.07178 16.9283H6.72503V13.275H3.07178V16.9283Z" fill="white"/>
</g>
<defs>
<clipPath id="clip0_440_2166">
<rect width="20" height="20" fill="white"/>
</clipPath>
</defs>
</svg>
