<svg width="16" height="16" viewBox="0 0 16 16" fill="none" xmlns="http://www.w3.org/2000/svg">
<g clip-path="url(#clip0_601_1957)">
<path d="M14.4762 5.59998C14.8825 5.59998 15.2381 5.75998 15.5429 6.07998C15.8476 6.39998 16 6.77331 16 7.19998V8.79998C16 8.89331 15.9873 8.99331 15.9619 9.09998C15.9365 9.20665 15.9111 9.30665 15.8857 9.39998L13.6 15.04C13.4857 15.3066 13.2952 15.5333 13.0286 15.72C12.7619 15.9066 12.4825 16 12.1905 16H3.80952V5.59998L8.38095 0.83998C8.57143 0.63998 8.79683 0.523314 9.05714 0.48998C9.31746 0.456647 9.56825 0.506647 9.80952 0.63998C10.0508 0.773314 10.2286 0.95998 10.3429 1.19998C10.4571 1.43998 10.4825 1.68665 10.419 1.93998L9.5619 5.59998H14.4762ZM5.33333 6.27998V14.4H12.1905L14.4762 8.79998V7.19998H7.61905L8.64762 2.79998L5.33333 6.27998ZM1.52381 16C1.10476 16 0.746032 15.8433 0.447619 15.53C0.149206 15.2166 0 14.84 0 14.4V7.19998C0 6.75998 0.149206 6.38331 0.447619 6.06998C0.746032 5.75665 1.10476 5.59998 1.52381 5.59998H3.80952V7.19998H1.52381V14.4H3.80952V16H1.52381Z" fill="white"/>
</g>
<defs>
<clipPath id="clip0_601_1957">
<rect width="16" height="16" fill="white"/>
</clipPath>
</defs>
</svg>
