<svg width="20" height="20" viewBox="0 0 20 20" fill="none" xmlns="http://www.w3.org/2000/svg">
<g clip-path="url(#clip0_440_2134)">
<path d="M18.0952 6.99998C18.6032 6.99998 19.0476 7.19998 19.4286 7.59998C19.8095 7.99998 20 8.46664 20 8.99998V11C20 11.1166 19.9841 11.2416 19.9524 11.375C19.9206 11.5083 19.8889 11.6333 19.8571 11.75L17 18.8C16.8571 19.1333 16.619 19.4166 16.2857 19.65C15.9524 19.8833 15.6032 20 15.2381 20H4.7619V6.99998L10.4762 1.04998C10.7143 0.799976 10.996 0.654142 11.3214 0.612476C11.6468 0.570809 11.9603 0.633309 12.2619 0.799976C12.5635 0.966642 12.7857 1.19998 12.9286 1.49998C13.0714 1.79998 13.1032 2.10831 13.0238 2.42498L11.9524 6.99998H18.0952ZM6.66667 7.84998V18H6V12V11V9.5V8L6.66667 7.84998ZM1.90476 20C1.38095 20 0.93254 19.8041 0.559524 19.4125C0.186508 19.0208 0 18.55 0 18V8.99998C0 8.44998 0.186508 7.97914 0.559524 7.58748C0.93254 7.19581 1.38095 6.99998 1.90476 6.99998H4.7619V8.99998H1.90476V18H4.7619V20H1.90476Z" fill="white"/>
</g>
<defs>
<clipPath id="clip0_440_2134">
<rect width="20" height="20" fill="white"/>
</clipPath>
</defs>
</svg>
