<svg width="21" height="20" viewBox="0 0 21 20" fill="none" xmlns="http://www.w3.org/2000/svg">
<path d="M3.61388 19.0627C2.87303 19.0627 2.24174 18.8018 1.72 18.28C1.19825 17.7583 0.937378 17.127 0.937378 16.3862V14.195C0.937378 13.8195 1.06653 13.5025 1.32485 13.2442C1.58316 12.9859 1.90009 12.8567 2.27564 12.8567C2.65117 12.8567 2.96809 12.9859 3.22641 13.2442C3.48472 13.5025 3.61388 13.8195 3.61388 14.195V16.3862H17.5627V14.195C17.5627 13.8195 17.6919 13.5025 17.9502 13.2442C18.2085 12.9859 18.5254 12.8567 18.9009 12.8567C19.2765 12.8567 19.5934 12.9859 19.8517 13.2442C20.11 13.5025 20.2392 13.8195 20.2392 14.195V16.3862C20.2392 17.127 19.9783 17.7583 19.4566 18.28C18.9348 18.8018 18.3035 19.0627 17.5627 19.0627H3.61388ZM9.25006 4.89513L7.20594 6.93925C6.94251 7.20736 6.62793 7.33886 6.2622 7.33375C5.89648 7.32863 5.57956 7.19201 5.31144 6.92389C5.05824 6.65578 4.92791 6.34258 4.92044 5.9843C4.91299 5.62605 5.04332 5.31286 5.31144 5.04475L9.6452 0.703953C9.77691 0.572227 9.92311 0.475992 10.0838 0.415247C10.2445 0.354522 10.4127 0.324158 10.5883 0.324158C10.7639 0.324158 10.9321 0.354522 11.0928 0.415247C11.2535 0.475992 11.3997 0.572227 11.5314 0.703953L15.8722 5.04475C16.1356 5.30818 16.2636 5.6202 16.2561 5.98081C16.2487 6.34141 16.1207 6.65343 15.8722 6.91686C15.6041 7.18498 15.2871 7.32277 14.9214 7.33022C14.5557 7.33769 14.2388 7.20736 13.9706 6.93925L11.9265 4.89513V12.695C11.9265 13.0705 11.7974 13.3874 11.5391 13.6457C11.2807 13.9041 10.9638 14.0332 10.5883 14.0332C10.2128 14.0332 9.89584 13.9041 9.63753 13.6457C9.37921 13.3874 9.25006 13.0705 9.25006 12.695V4.89513Z" fill="white"/>
</svg>
