<svg width="16" height="11" viewBox="0 0 16 11" fill="none" xmlns="http://www.w3.org/2000/svg">
<g clip-path="url(#clip0_442_3208)">
<path d="M7.94296 4.19102C8.66424 4.19102 9.25196 4.77934 9.25196 5.50002C9.25196 6.2207 8.66363 6.7902 7.94296 6.7902C7.22228 6.7902 6.65278 6.2207 6.65278 5.50002C6.65278 4.77934 7.22228 4.19102 7.94296 4.19102ZM7.94296 0.965271C12.2312 0.965271 15.3234 4.98759 15.3234 4.98759C15.5322 5.25352 15.5322 5.7277 15.3234 5.99302C15.3234 5.99302 12.2306 10.0153 7.94296 10.0153C3.65531 10.0153 0.562527 5.99302 0.562527 5.99302C0.35367 5.72709 0.35367 5.25291 0.562527 4.98759C0.562527 4.98759 3.65531 0.965271 7.94296 0.965271ZM7.94296 8.74459C9.72674 8.74459 11.1875 7.28381 11.1875 5.50002C11.1875 3.71624 9.72674 2.25545 7.94296 2.25545C6.15917 2.25545 4.69838 3.71624 4.69838 5.50002C4.69838 7.28381 6.15917 8.74459 7.94296 8.74459Z" fill="white"/>
</g>
<defs>
<clipPath id="clip0_442_3208">
<rect width="16" height="9.14286" fill="white" transform="translate(0 0.928589)"/>
</clipPath>
</defs>
</svg>
