<svg width="16" height="22" viewBox="0 0 16 22" fill="none" xmlns="http://www.w3.org/2000/svg">
<g clip-path="url(#clip0_7_493)">
<path d="M4 7C4.73333 7 5.33333 7.6 5.33333 8.33334V9.66667C5.33333 10.4 4.73333 11 4 11H2.66667C1.93333 11 1.33333 10.4 1.33333 9.66667V8.33334C1.33333 7.6 1.93333 7 2.66667 7H4ZM12 7C11.2667 7 10.6667 7.6 10.6667 8.33334V9.66667C10.6667 10.4 11.2667 11 12 11H13.3333C14.0667 11 14.6667 10.4 14.6667 9.66667V8.33334C14.6667 7.6 14.0667 7 13.3333 7H12ZM1.33333 6.33334H14.6667C15.4 6.33334 15.52 5.97334 14.9333 5.53334L9.06667 1.13334C8.48 0.693337 7.52 0.693337 6.93333 1.13334L1.06667 5.53334C0.48 5.97334 0.6 6.33334 1.33333 6.33334ZM14.6667 11.6667H1.33333C0.6 11.6667 0 12.2667 0 13V19.6667C0 20.4 0.6 21 1.33333 21H2.66667C2.66667 21 4 21 4 19.6667C4 17.4573 5.79067 15.6667 8 15.6667C10.2093 15.6667 12 17.4573 12 19.6667C12 21 13.3333 21 13.3333 21H14.6667C15.4 21 16 20.4 16 19.6667V13C16 12.2667 15.4 11.6667 14.6667 11.6667Z" fill="white"/>
</g>
<defs>
<clipPath id="clip0_7_493">
<rect width="16" height="21.3333" fill="white" transform="translate(0 0.333336)"/>
</clipPath>
</defs>
</svg>
