<svg width="16" height="16" viewBox="0 0 16 16" fill="none" xmlns="http://www.w3.org/2000/svg">
<g clip-path="url(#clip0_7_499)">
<path d="M11.84 0H9.75998C7.19998 0 5.59998 1.6 5.59998 4.16V7.4H10.6C10.928 7.4 11.2 7.672 11.2 8C11.2 8.328 10.928 8.6 10.6 8.6H5.59998V11.84C5.59998 14.4 7.19998 16 9.75998 16H11.832C14.392 16 15.992 14.4 15.992 11.84V4.16C16 1.6 14.4 0 11.84 0Z" fill="white"/>
<path d="M2.04917 7.39985L3.70517 5.74388C3.82517 5.62388 3.88117 5.47188 3.88117 5.31988C3.88117 5.16788 3.82517 5.00788 3.70517 4.89588C3.47317 4.66388 3.08917 4.66388 2.85717 4.89588L0.177174 7.57585C-0.0548262 7.80785 -0.0548262 8.19185 0.177174 8.42385L2.85717 11.1038C3.08917 11.3358 3.47317 11.3358 3.70517 11.1038C3.93717 10.8718 3.93717 10.4878 3.70517 10.2558L2.04917 8.59985H5.60117V7.39985H2.04917Z" fill="white"/>
</g>
<defs>
<clipPath id="clip0_7_499">
<rect width="16" height="16" fill="white"/>
</clipPath>
</defs>
</svg>
