<svg width="15" height="18" viewBox="0 0 15 18" fill="none" xmlns="http://www.w3.org/2000/svg">
<path d="M1.17395 7.04349H5.57612C6.38652 7.04349 7.04352 6.38651 7.04352 5.57609V1.17392" stroke="white" stroke-width="2"/>
<path fill-rule="evenodd" clip-rule="evenodd" d="M4.94372 0.91196C5.40237 0.453312 6.02445 0.195648 6.67304 0.195648H11.4457C12.7964 0.195648 13.8913 1.29061 13.8913 2.6413V15.3587C13.8913 16.7094 12.7964 17.8043 11.4457 17.8043H2.64133C1.29064 17.8043 0.195679 16.7094 0.195679 15.3587V6.67303C0.195679 6.0244 0.453343 5.40234 0.911991 4.94369L4.94372 0.91196ZM6.67304 2.15217C6.54332 2.15217 6.41889 2.2037 6.32722 2.29544L2.29547 6.32716C2.20374 6.41889 2.1522 6.5433 2.1522 6.67303V15.3587C2.1522 15.6288 2.37119 15.8478 2.64133 15.8478H11.4457C11.7158 15.8478 11.9348 15.6288 11.9348 15.3587V2.6413C11.9348 2.37116 11.7158 2.15217 11.4457 2.15217H6.67304Z" fill="white"/>
<path d="M5.08691 11.4457H8.99996M7.04344 9.48914V13.4022" stroke="white" stroke-width="2" stroke-linecap="round" stroke-linejoin="round"/>
</svg>
