<svg width="19" height="18" viewBox="0 0 19 18" fill="none" xmlns="http://www.w3.org/2000/svg">
<path d="M8.39304 2.44187C8.64752 1.82134 9.52637 1.82134 9.78084 2.44187L11.0739 5.59466C11.1817 5.85734 11.4285 6.03667 11.7116 6.05795L15.1097 6.31348C15.7784 6.36378 16.05 7.19956 15.5385 7.63335L12.9396 9.83745C12.7231 10.021 12.6288 10.3112 12.6961 10.5871L13.5031 13.8978C13.6619 14.5494 12.9509 15.0659 12.3803 14.7135L9.48107 12.9229C9.23949 12.7737 8.93439 12.7737 8.69282 12.9229L5.79355 14.7135C5.22291 15.0659 4.51195 14.5494 4.67079 13.8978L5.47783 10.5871C5.54507 10.3112 5.45079 10.021 5.23426 9.83745L2.63537 7.63335C2.12385 7.19956 2.39541 6.36378 3.06423 6.31348L6.46229 6.05795C6.7454 6.03667 6.99222 5.85734 7.09995 5.59466L8.39304 2.44187Z" stroke="white" stroke-width="2"/>
</svg>
