<svg width="24" height="27" viewBox="0 0 24 27" fill="none" xmlns="http://www.w3.org/2000/svg">
<path fill-rule="evenodd" clip-rule="evenodd" d="M10.721 0.527362C11.515 0.0806621 12.4847 0.0806621 13.2788 0.527362L22.4092 5.66323C23.2307 6.12528 23.739 6.99445 23.739 7.9369V18.0386C23.739 18.8688 23.3 19.6371 22.5848 20.0587L13.1564 25.615C12.4428 26.0357 11.5569 26.0357 10.8433 25.615L1.41502 20.0587C0.699773 19.6371 0.260742 18.8688 0.260742 18.0386V7.9369C0.260742 6.99445 0.769073 6.12528 1.5905 5.66323L10.721 0.527362ZM3.03718 8.0019C3.39036 7.37405 4.18563 7.15137 4.81349 7.50454L12.0001 11.547L19.1867 7.50454C19.8146 7.15137 20.6099 7.37405 20.9631 8.0019C21.3162 8.62976 21.0935 9.42505 20.4656 9.77821L13.3045 13.8064V22.1739C13.3045 22.8943 12.7205 23.4783 12.0001 23.4783C11.2797 23.4783 10.6958 22.8943 10.6958 22.1739V13.8064L3.53455 9.77821C2.90669 9.42505 2.68401 8.62976 3.03718 8.0019Z" fill="white"/>
</svg>
