<svg width="20" height="21" viewBox="0 0 20 21" fill="none" xmlns="http://www.w3.org/2000/svg">
<g clip-path="url(#clip0_23_1697)">
<path d="M14.8 7.04347H10.75V11.4835L12.82 9.41347C12.97 9.26347 13.16 9.19347 13.35 9.19347C13.54 9.19347 13.73 9.26347 13.88 9.41347C14.17 9.70347 14.17 10.1835 13.88 10.4735L10.53 13.8235C10.24 14.1135 9.76 14.1135 9.47 13.8235L6.12 10.4735C5.83 10.1835 5.83 9.70347 6.12 9.41347C6.41 9.12347 6.89 9.12347 7.18 9.41347L9.25 11.4835V7.04347H5.2C2 7.04347 0 9.04347 0 12.2435V14.8335C0 18.0435 2 20.0435 5.2 20.0435H14.79C17.99 20.0435 19.99 18.0435 19.99 14.8435V12.2435C20 9.04347 18 7.04347 14.8 7.04347Z" fill="white"/>
<path d="M10.75 0.793472C10.75 0.383472 10.41 0.0434723 10 0.0434723C9.59 0.0434723 9.25 0.383472 9.25 0.793472V7.04347H10.75V0.793472Z" fill="white"/>
</g>
<defs>
<clipPath id="clip0_23_1697">
<rect width="20" height="20" fill="white" transform="translate(0 0.0434723)"/>
</clipPath>
</defs>
</svg>
