<svg width="25" height="25" viewBox="0 0 25 25" fill="none" xmlns="http://www.w3.org/2000/svg">
<g clip-path="url(#clip0_19_755)">
<path d="M24.3713 20.4503C24.3713 22.7719 22.4894 24.6526 20.1695 24.6526C17.848 24.6526 15.9666 22.7719 15.9666 20.4503C15.9666 20.3742 15.9736 20.3 15.9777 20.2246L7.65906 15.9836C6.96142 16.5005 6.09944 16.8105 5.16433 16.8105C2.84271 16.8105 0.961426 14.9292 0.961426 12.6082C0.961426 10.2872 2.84271 8.40591 5.16433 8.40591C6.2035 8.40591 7.15319 8.78546 7.88711 9.41059L15.9859 5.28137C15.9742 5.15565 15.9666 5.02993 15.9666 4.90182C15.9666 2.58137 17.8479 0.699524 20.1695 0.699524C22.4893 0.699524 24.3712 2.58137 24.3712 4.90182C24.3712 7.22288 22.4894 9.10416 20.1695 9.10416C19.1344 9.10416 18.1894 8.72874 17.4572 8.10943L9.34792 12.2445C9.35842 12.3644 9.36606 12.4854 9.36606 12.6083C9.36606 12.8264 9.34385 13.0387 9.31225 13.248L17.3461 17.3439C18.0924 16.6655 19.0807 16.248 20.1695 16.248C22.4894 16.2479 24.3713 18.1298 24.3713 20.4503Z" fill="#6A6565"/>
</g>
<defs>
<clipPath id="clip0_19_755">
<rect width="24" height="24.4" fill="white" transform="translate(0.666504 0.599976)"/>
</clipPath>
</defs>
</svg>
