<svg width="21" height="13" viewBox="0 0 21 13" fill="none" xmlns="http://www.w3.org/2000/svg">
<g clip-path="url(#clip0_3_477)">
<path d="M10.4251 4.43707C11.3718 4.43707 12.1432 5.20925 12.1432 6.15514C12.1432 7.10103 11.371 7.8485 10.4251 7.8485C9.4792 7.8485 8.73173 7.10103 8.73173 6.15514C8.73173 5.20925 9.4792 4.43707 10.4251 4.43707ZM10.4251 0.203278C16.0534 0.203278 20.1119 5.48257 20.1119 5.48257C20.386 5.83161 20.386 6.45397 20.1119 6.8022C20.1119 6.8022 16.0526 12.0815 10.4251 12.0815C4.79756 12.0815 0.738278 6.8022 0.738278 6.8022C0.464153 6.45317 0.464153 5.83081 0.738278 5.48257C0.738278 5.48257 4.79756 0.203278 10.4251 0.203278ZM10.4251 10.4136C12.7663 10.4136 14.6836 8.49636 14.6836 6.15514C14.6836 3.81392 12.7663 1.89664 10.4251 1.89664C8.08387 1.89664 6.16659 3.81392 6.16659 6.15514C6.16659 8.49636 8.08387 10.4136 10.4251 10.4136Z" fill="#6A6565"/>
</g>
<defs>
<clipPath id="clip0_3_477">
<rect width="21" height="12" fill="white" transform="translate(0 0.155151)"/>
</clipPath>
</defs>
</svg>
