<svg width="9" height="22" viewBox="0 0 9 22" fill="none" xmlns="http://www.w3.org/2000/svg">
<g clip-path="url(#clip0_15_779)">
<path fill-rule="evenodd" clip-rule="evenodd" d="M4.59999 19.7996C3.38669 19.7996 2.4 18.8129 2.4 17.5996C2.4 16.3863 3.38669 15.3996 4.59999 15.3996C5.81328 15.3996 6.79998 16.3863 6.79998 17.5996C6.79998 18.8129 5.81328 19.7996 4.59999 19.7996ZM5.69998 13.3549V3.2954L6.16639 3.76215C6.59539 4.19115 7.29279 4.19117 7.72179 3.76108C8.15078 3.33098 8.15078 2.63461 7.71959 2.20561L6.15098 0.641022C5.29409 -0.213674 3.9059 -0.213674 3.04901 0.641022L1.4804 2.20454C1.04921 2.63464 1.04921 3.33098 1.4782 3.76108C1.9083 4.19117 2.6046 4.19115 3.0336 3.76215L3.49999 3.2954V13.3549C1.2912 13.9269 -0.25318 16.1523 0.319917 18.6438C0.685115 20.2267 1.96881 21.5125 3.5506 21.8788C6.43698 22.5454 8.99997 20.3716 8.99997 17.5996C8.99997 15.5514 7.59417 13.8455 5.69998 13.3549Z" fill="white"/>
</g>
<defs>
<clipPath id="clip0_15_779">
<rect width="8.80026" height="22" fill="white" transform="translate(0.199707)"/>
</clipPath>
</defs>
</svg>
