<svg width="48" height="48" viewBox="0 0 48 48" fill="none" xmlns="http://www.w3.org/2000/svg">
<g clip-path="url(#clip0_23_1676)">
<path d="M47.5 8V13H40V20.5H35V13H27.5V8H35V0.5H40V8H47.5ZM26.25 25.5C28.32 25.5 30 23.82 30 21.75C30 19.68 28.32 18 26.25 18C24.18 18 22.5 19.68 22.5 21.75C22.5 23.82 24.18 25.5 26.25 25.5ZM35 33.585L33.7175 32.16C31.7325 29.9475 28.2675 29.9475 26.2775 32.16L24.64 33.985L12.5 20.5L5 28.8325V13H22.5V8H5C2.2375 8 0 10.2375 0 13V43C0 45.7625 2.2375 48 5 48H35C37.7625 48 40 45.7625 40 43V25.5H35V33.585Z" fill="#6A6565"/>
</g>
<defs>
<clipPath id="clip0_23_1676">
<rect width="48" height="48" fill="white"/>
</clipPath>
</defs>
</svg>
